<svg width="516" height="216" viewBox="0 0 516 216" fill="none" xmlns="http://www.w3.org/2000/svg">
<g clip-path="url(#clip0_958_172797)">
<rect x="6" y="6" width="504" height="204" fill="#DDE3ED"/>
<g clip-path="url(#clip1_958_172797)">
<g clip-path="url(#clip2_958_172797)">
<g clip-path="url(#clip3_958_172797)">
<mask id="mask0_958_172797" style="mask-type:luminance" maskUnits="userSpaceOnUse" x="187" y="-233" width="551" height="737">
<path d="M496.443 -232.641L737.912 -111.394L429.408 503.002L187.939 381.754L496.443 -232.641Z" fill="white"/>
</mask>
<g mask="url(#mask0_958_172797)">
<mask id="mask1_958_172797" style="mask-type:alpha" maskUnits="userSpaceOnUse" x="136" y="-333" width="644" height="887">
<path d="M515.214 -330.862L777.952 -198.935L401.016 551.745L138.279 419.817L515.214 -330.862Z" fill="#C4C4C4" stroke="url(#paint0_linear_958_172797)" stroke-width="2"/>
</mask>
<g mask="url(#mask1_958_172797)">
<path d="M427.174 501.88C427.442 502.015 427.665 502.015 427.934 501.926C428.471 501.748 428.74 501.212 428.562 500.675L334.435 230.845C316.277 178.982 319.725 123.757 344.001 75.4096C368.277 27.0622 410.466 -8.5985 462.952 -25.101L735.54 -110.682C736.077 -110.86 736.346 -111.396 736.168 -111.933C735.99 -112.47 735.454 -112.739 734.917 -112.561L462.329 -26.9803C409.351 -10.3892 366.714 25.7179 342.214 74.5121C317.713 123.306 314.219 179.068 332.555 231.468L426.683 501.298C426.772 501.567 426.995 501.79 427.174 501.88Z" fill="url(#paint1_linear_958_172797)"/>
<path d="M427.174 501.88C427.442 502.015 427.665 502.015 427.934 501.926C428.471 501.748 428.74 501.212 428.562 500.675L334.435 230.845C316.276 178.982 319.724 123.757 344.001 75.4096C368.277 27.0622 410.465 -8.5985 462.952 -25.101L735.54 -110.682C736.077 -110.86 736.346 -111.396 736.168 -111.933C735.99 -112.47 735.454 -112.739 734.917 -112.561L462.329 -26.9803C409.35 -10.3892 366.714 25.7179 342.214 74.5121C317.713 123.306 314.219 179.068 332.555 231.468L426.683 501.298C426.772 501.567 426.995 501.79 427.174 501.88Z" fill="url(#paint2_linear_958_172797)"/>
<path d="M427.174 501.88C427.442 502.015 427.665 502.015 427.934 501.926C428.471 501.748 428.74 501.212 428.562 500.675L334.435 230.845C316.276 178.982 319.724 123.757 344.001 75.4096C368.277 27.0622 410.465 -8.5985 462.952 -25.101L735.54 -110.682C736.077 -110.86 736.346 -111.396 736.168 -111.933C735.99 -112.47 735.454 -112.739 734.917 -112.561L462.329 -26.9803C409.35 -10.3892 366.714 25.7179 342.214 74.5121C317.713 123.306 314.219 179.068 332.555 231.468L426.683 501.298C426.772 501.567 426.995 501.79 427.174 501.88Z" fill="#8DAEFF"/>
<path d="M435.117 485.839C435.385 485.973 435.608 485.974 435.877 485.885C436.414 485.707 436.683 485.171 436.505 484.634L347.406 229.525C329.56 178.155 332.963 123.466 357.015 75.5658C381.067 27.6653 422.897 -7.72771 474.846 -24.0522L733.071 -105.096C733.608 -105.274 733.877 -105.81 733.699 -106.347C733.521 -106.884 732.985 -107.153 732.448 -106.975L474.178 -25.8422C421.692 -9.33973 379.459 26.4104 355.182 74.7577C330.906 123.105 327.458 178.33 345.571 230.282L434.626 485.256C434.715 485.525 434.938 485.749 435.117 485.839Z" fill="#8DAEFF"/>
<path d="M443.059 470.245C443.327 470.379 443.551 470.38 443.819 470.291C444.356 470.113 444.625 469.576 444.447 469.04L360.512 228.385C342.71 177.372 346.066 123.22 369.894 75.7667C393.722 28.3131 435.238 -6.67797 486.695 -22.9138L730.11 -99.4211C730.647 -99.599 730.916 -100.135 730.738 -100.672C730.56 -101.209 730.024 -101.478 729.487 -101.3L486.117 -24.8826C434.034 -8.51359 392.204 26.8794 368.107 74.8693C344.055 122.77 340.697 177.593 358.587 229.097L442.568 469.662C442.657 469.931 442.88 470.155 443.059 470.245Z" fill="#8DAEFF"/>
<path d="M451.135 454.829C451.403 454.963 451.627 454.964 451.895 454.875C452.432 454.697 452.701 454.161 452.523 453.624L373.528 227.199C355.904 176.723 359.17 122.974 382.773 75.9669C406.377 28.9601 447.535 -5.76324 498.544 -21.7763L727.417 -93.6125C727.954 -93.7904 728.223 -94.3266 728.045 -94.8636C727.867 -95.4006 727.331 -95.6698 726.794 -95.4918L497.922 -23.6556C446.375 -7.46461 404.814 27.6158 380.986 75.0695C357.114 122.612 353.846 176.809 371.648 227.822L450.644 454.247C450.733 454.515 450.956 454.739 451.135 454.829Z" fill="#8DAEFF"/>
<path d="M459.077 439.235C459.345 439.369 459.569 439.37 459.837 439.281C460.374 439.103 460.643 438.567 460.465 438.03L386.543 226.238C369.142 176.209 372.363 122.996 395.742 76.4365C419.121 29.8765 459.876 -4.48978 510.393 -20.4142L724.544 -87.6691C725.081 -87.8471 725.351 -88.3833 725.173 -88.9202C724.995 -89.4572 724.458 -89.7264 723.921 -89.5485L509.77 -22.2936C458.761 -6.28052 417.558 28.5322 393.955 75.539C370.306 122.635 367.04 176.385 384.664 226.861L458.586 438.653C458.675 438.921 458.809 439.1 459.077 439.235Z" fill="#8DAEFF"/>
<path d="M467.198 423.507C467.467 423.642 467.69 423.642 467.959 423.553C468.496 423.375 468.765 422.839 468.587 422.302L399.738 225.142C382.425 175.606 385.69 122.975 408.889 76.7721C432.044 30.6589 472.351 -3.48447 522.421 -19.1861L721.404 -81.6367C721.941 -81.8147 722.21 -82.3509 722.032 -82.8879C721.854 -83.4249 721.318 -83.6941 720.781 -83.5161L521.888 -21.0205C471.281 -5.141 430.615 29.2701 407.191 75.9195C383.768 122.569 380.547 175.782 397.948 225.81L466.663 423.014C466.752 423.283 467.02 423.417 467.198 423.507Z" fill="#8DAEFF"/>
<path d="M475.14 408.136C475.408 408.271 475.632 408.271 475.9 408.182C476.437 408.004 476.707 407.468 476.529 406.931L412.664 223.912C395.575 174.823 398.839 122.639 421.769 76.9728C444.699 31.3064 484.603 -2.47988 534.181 -18.0929L718.577 -76.0068C719.114 -76.1848 719.383 -76.721 719.205 -77.2579C719.027 -77.7949 718.491 -78.0641 717.954 -77.8862L533.558 -19.9722C483.443 -4.18127 443.136 29.9621 419.937 76.1647C396.737 122.367 393.517 175.133 410.695 224.714L474.604 407.643C474.693 407.912 474.961 408.046 475.14 408.136Z" fill="#8DAEFF"/>
<path d="M482.949 392.139C483.217 392.274 483.441 392.274 483.709 392.185C484.246 392.007 484.515 391.471 484.337 390.934L425.68 222.95C408.679 174.354 411.853 122.572 434.559 77.3525C457.309 32.0436 496.9 -1.34074 546.03 -16.7309L715.973 -70.1525C716.51 -70.3305 716.779 -70.8667 716.601 -71.4036C716.423 -71.9406 715.887 -72.2098 715.35 -72.0319L545.452 -18.6996C495.785 -3.13149 455.746 30.6993 432.771 76.455C409.796 122.211 406.622 174.44 423.756 223.663L482.458 391.557C482.547 391.826 482.681 392.005 482.949 392.139Z" fill="#8DAEFF"/>
<path d="M491.026 375.829C491.295 375.964 491.518 375.964 491.787 375.875C492.324 375.697 492.593 375.161 492.415 374.624L438.964 221.676C422.186 173.527 425.269 122.371 447.796 77.5088C470.322 32.6468 509.51 -0.38048 558.148 -15.682L712.788 -64.255C713.324 -64.433 713.594 -64.9692 713.416 -65.5062C713.238 -66.0431 712.702 -66.3124 712.165 -66.1344L557.659 -17.6059C508.529 -2.21573 468.893 31.258 446.143 76.5669C423.392 121.876 420.218 173.658 437.219 222.254L490.536 375.247C490.624 375.516 490.848 375.74 491.026 375.829Z" fill="#8DAEFF"/>
<path d="M498.744 360.906C499.012 361.041 499.236 361.041 499.504 360.952C500.041 360.774 500.31 360.238 500.132 359.701L451.488 220.803C434.843 173.057 438.015 122.393 460.317 77.9778C482.619 33.5626 521.448 0.803025 569.594 -14.4099L710.363 -58.5343C710.9 -58.7123 711.169 -59.2485 710.991 -59.7855C710.813 -60.3224 710.277 -60.5917 709.74 -60.4137L568.926 -16.1999C520.288 -0.898355 481.011 32.3076 458.485 77.1697C435.958 122.032 432.83 173.277 449.564 221.515L498.253 360.324C498.342 360.592 498.476 360.771 498.744 360.906Z" fill="#8DAEFF"/>
<path d="M506.866 344.954C507.134 345.089 507.357 345.089 507.626 345C508.163 344.822 508.432 344.286 508.254 343.749L464.906 219.484C448.44 172.275 451.611 122.058 473.644 78.1791C495.721 34.2108 534.147 1.80833 581.756 -13.2266L707.625 -52.8595C708.162 -53.0375 708.431 -53.5737 708.253 -54.1107C708.075 -54.6476 707.539 -54.9169 707.002 -54.7389L581.134 -15.3296C532.898 -0.161544 494.159 32.6429 471.812 77.1474C449.465 121.652 446.382 172.361 462.938 220.062L506.375 344.372C506.464 344.64 506.597 344.82 506.866 344.954Z" fill="#8DAEFF"/>
<path d="M514.63 328.822C514.898 328.957 515.122 328.957 515.39 328.868C515.927 328.69 516.196 328.154 516.018 327.617L477.833 218.253C461.544 171.581 464.58 121.856 486.434 78.3342C508.287 34.8127 546.355 2.67799 593.516 -12.1341L704.574 -47.0069C705.111 -47.1849 705.38 -47.7212 705.202 -48.2581C705.024 -48.7951 704.488 -49.0643 703.951 -48.8863L592.893 -14.0135C545.195 0.9766 506.724 33.4684 484.602 77.5261C462.524 121.495 459.442 171.756 475.864 219.055L514.139 328.24C514.228 328.508 514.362 328.688 514.63 328.822Z" fill="#8DAEFF"/>
<path d="M522.706 313.408C522.974 313.542 523.198 313.543 523.466 313.454C524.003 313.276 524.272 312.739 524.094 312.202L490.849 217.068C474.739 170.709 477.729 121.521 499.403 78.3569C521.032 35.2822 558.697 3.50457 605.455 -11.174L700.942 -41.1093C701.479 -41.2873 701.748 -41.8235 701.57 -42.3604C701.392 -42.8974 700.856 -43.1666 700.319 -42.9886L604.788 -12.964C557.537 1.80319 519.469 33.9379 497.571 77.5488C475.673 121.16 472.592 170.974 488.925 217.781L522.215 312.825C522.304 313.094 522.438 313.273 522.706 313.408Z" fill="#8DAEFF"/>
<path d="M530.828 297.456C531.096 297.59 531.319 297.591 531.588 297.502C532.125 297.324 532.394 296.788 532.216 296.251L504.178 215.928C488.246 170.106 491.235 121.365 512.64 78.7371C534.044 36.1092 571.351 4.59926 617.618 -9.99074L698.651 -35.4336C699.188 -35.6116 699.458 -36.1479 699.28 -36.6848C699.102 -37.2218 698.565 -37.491 698.028 -37.3131L616.995 -11.8701C570.191 2.89787 532.481 34.7649 510.852 77.8396C489.179 121.004 486.188 170.192 502.299 216.551L530.337 296.874C530.426 297.142 530.559 297.321 530.828 297.456Z" fill="#8DAEFF"/>
<path d="M538.502 281.503C538.77 281.638 538.994 281.638 539.262 281.549C539.799 281.371 540.068 280.835 539.891 280.298L517.015 214.877C501.171 169.547 504.204 121.387 525.429 79.1166C546.61 36.9356 583.513 5.78274 629.288 -8.71866L695.242 -29.3125C695.779 -29.4905 696.048 -30.0268 695.87 -30.5637C695.692 -31.1007 695.156 -31.3699 694.619 -31.192L628.709 -10.4638C582.353 4.08136 545.047 35.5913 523.597 78.3085C502.148 121.026 499.158 169.767 515.18 215.634L538.011 280.921C538.1 281.19 538.323 281.414 538.502 281.503Z" fill="#8DAEFF"/>
<path d="M546.445 265.686C546.713 265.82 546.936 265.821 547.205 265.732C547.742 265.554 548.011 265.018 547.833 264.481L530.12 213.736C514.499 168.854 517.398 121.186 538.353 79.452C559.309 37.7178 595.854 6.83265 641.137 -7.35654L692.639 -23.6818C693.176 -23.8598 693.445 -24.396 693.267 -24.9329C693.089 -25.4699 692.553 -25.7391 692.016 -25.5612L640.469 -9.37014C594.65 4.99702 557.702 36.2392 536.477 78.5097C515.252 120.78 512.263 169.074 528.107 214.404L545.909 265.193C546.043 265.372 546.177 265.551 546.445 265.686Z" fill="#8DAEFF"/>
<path d="M554.609 250.985C554.877 251.12 555.101 251.12 555.369 251.031C555.906 250.853 556.175 250.317 555.997 249.78L543.091 212.64C527.604 168.16 530.501 120.939 551.278 79.5624C572.009 38.2751 608.151 7.74705 653.031 -6.30866L689.99 -17.9628C690.527 -18.1408 690.797 -18.677 690.619 -19.214C690.441 -19.7509 689.904 -20.0202 689.368 -19.8422L652.408 -8.18801C607.036 5.95635 570.491 36.8414 549.49 78.665C528.445 120.578 525.502 168.335 541.167 213.352L554.073 250.493C554.207 250.672 554.43 250.896 554.609 250.985Z" fill="#8DAEFF"/>
<path d="M562.374 234.407C562.642 234.542 562.866 234.542 563.134 234.453C563.671 234.275 563.94 233.739 563.762 233.202L556.241 211.41C540.932 167.467 543.784 120.783 564.336 79.853C584.888 38.9231 620.627 8.75212 665.014 -5.21498L686.939 -12.1095C687.476 -12.2875 687.746 -12.8237 687.568 -13.3607C687.39 -13.8976 686.854 -14.1669 686.317 -13.9889L664.257 -7.04985C619.333 7.09528 583.191 37.6233 562.414 79C541.638 120.377 538.696 167.687 554.228 212.077L561.883 233.825C561.972 234.093 562.195 234.317 562.374 234.407Z" fill="#8DAEFF"/>
</g>
</g>
</g>
</g>
</g>
<g clip-path="url(#clip4_958_172797)">
<g clip-path="url(#clip5_958_172797)">
<g clip-path="url(#clip6_958_172797)">
<mask id="mask2_958_172797" style="mask-type:luminance" maskUnits="userSpaceOnUse" x="-255" y="-146" width="739" height="514">
<path d="M-151.502 -145.261L-255 104.331L380.065 367.672L483.563 118.08L-151.502 -145.261Z" fill="white"/>
</mask>
<g mask="url(#mask2_958_172797)">
<mask id="mask3_958_172797" style="mask-type:alpha" maskUnits="userSpaceOnUse" x="-344" y="-209" width="892" height="597">
<path d="M-229.908 -207.328L-342.522 64.249L433.412 386.003L546.026 114.426L-229.908 -207.328Z" fill="#C4C4C4" stroke="url(#paint3_linear_958_172797)" stroke-width="2"/>
</mask>
<g mask="url(#mask3_958_172797)">
<path d="M381.023 365.361C380.908 365.638 380.739 365.785 380.478 365.893C379.955 366.109 379.401 365.879 379.184 365.357L274.054 99.6202C253.898 48.5006 215.192 8.95889 165.218 -11.7636C115.244 -32.4861 60.0067 -31.8996 9.49764 -10.0827L-252.74 103.318C-253.263 103.535 -253.817 103.305 -254.033 102.782C-254.25 102.259 -254.02 101.705 -253.497 101.489L8.74068 -11.9122C59.68 -33.9837 115.548 -34.5251 165.984 -13.6111C216.42 7.30295 255.511 47.221 275.884 98.8632L381.014 364.6C381.122 364.861 381.1 365.177 381.023 365.361Z" fill="url(#paint4_linear_958_172797)"/>
<path d="M381.023 365.361C380.908 365.638 380.739 365.785 380.478 365.893C379.955 366.109 379.401 365.879 379.185 365.357L274.054 99.6202C253.898 48.5006 215.192 8.95889 165.218 -11.7636C115.244 -32.4861 60.0068 -31.8996 9.49776 -10.0827L-252.74 103.318C-253.263 103.535 -253.817 103.305 -254.033 102.782C-254.25 102.259 -254.02 101.705 -253.497 101.489L8.7408 -11.9122C59.6802 -33.9837 115.549 -34.5251 165.984 -13.6111C216.42 7.30295 255.511 47.221 275.884 98.8632L381.014 364.6C381.122 364.861 381.1 365.177 381.023 365.361Z" fill="url(#paint5_linear_958_172797)"/>
<path d="M381.023 365.361C380.908 365.638 380.739 365.785 380.478 365.893C379.955 366.109 379.401 365.879 379.185 365.357L274.054 99.6202C253.898 48.5006 215.192 8.95889 165.218 -11.7636C115.244 -32.4861 60.0068 -31.8996 9.49776 -10.0827L-252.74 103.318C-253.263 103.535 -253.817 103.305 -254.033 102.782C-254.25 102.259 -254.02 101.705 -253.497 101.489L8.7408 -11.9122C59.6802 -33.9837 115.549 -34.5251 165.984 -13.6111C216.42 7.30295 255.511 47.221 275.884 98.8632L381.014 364.6C381.122 364.861 381.1 365.177 381.023 365.361Z" fill="#8DAEFF"/>
<path d="M364.526 358.413C364.411 358.69 364.242 358.837 363.981 358.945C363.458 359.161 362.904 358.931 362.688 358.409L263.375 107.101C243.304 56.5577 204.983 17.3923 155.471 -3.13874C105.959 -23.6697 51.1678 -23.1148 1.18144 -1.51413L-247.22 105.933C-247.743 106.149 -248.297 105.919 -248.514 105.396C-248.73 104.874 -248.5 104.319 -247.977 104.103L0.516846 -3.30532C51.0259 -25.1222 106.356 -25.6704 156.33 -4.9479C206.304 15.7746 245.009 55.3164 265.258 106.474L364.517 357.652C364.626 357.913 364.603 358.228 364.526 358.413Z" fill="#8DAEFF"/>
<path d="M348.323 351.802C348.208 352.079 348.039 352.225 347.778 352.333C347.255 352.549 346.701 352.32 346.484 351.797L252.711 114.803C232.841 64.5595 194.905 25.7703 145.855 5.43079C96.8049 -14.9087 42.5136 -14.2546 -7.04236 7.09147L-241.27 108.291C-241.793 108.507 -242.347 108.277 -242.563 107.755C-242.78 107.232 -242.55 106.678 -242.027 106.462L-7.8917 5.22369C42.2253 -16.431 97.0167 -16.986 146.621 3.58333C196.133 24.1143 234.508 63.4105 254.633 114.084L348.314 351.04C348.422 351.301 348.399 351.617 348.323 351.802Z" fill="#8DAEFF"/>
<path d="M332.135 345.414C332.02 345.691 331.851 345.838 331.59 345.946C331.067 346.162 330.513 345.932 330.296 345.41L242.085 122.414C222.431 72.6932 184.827 34.1495 136.239 14.0016C87.6506 -6.14637 33.8055 -5.52379 -15.2661 15.6984L-235.435 110.928C-235.958 111.144 -236.512 110.914 -236.728 110.392C-236.944 109.869 -236.715 109.315 -236.192 109.098L-16.0231 13.8689C33.5712 -7.56954 87.9548 -8.18535 137.005 12.1541C186.147 32.5319 224.045 71.4135 243.915 121.657L332.126 344.653C332.234 344.914 332.212 345.229 332.135 345.414Z" fill="#8DAEFF"/>
<path d="M315.931 338.803C315.817 339.08 315.648 339.227 315.386 339.335C314.863 339.551 314.309 339.321 314.093 338.799L231.606 130.193C212.076 80.9567 174.857 42.7893 126.731 22.8329C78.6045 2.87646 25.2978 3.50581 -23.3435 24.4734L-229.377 113.548C-229.899 113.764 -230.453 113.534 -230.67 113.012C-230.886 112.489 -230.656 111.935 -230.133 111.718L-24.1004 22.6439C24.9711 1.42176 78.9087 0.837477 127.497 20.9854C176.178 41.1717 213.782 79.7153 233.436 129.436L315.922 338.042C316.031 338.303 316.046 338.526 315.931 338.803Z" fill="#8DAEFF"/>
<path d="M299.505 332.208C299.39 332.485 299.221 332.632 298.959 332.74C298.437 332.956 297.883 332.726 297.666 332.204L220.904 137.988C201.629 89.1824 164.757 51.4836 117 31.6804C69.3353 11.9155 16.513 12.4209 -31.6439 33.2646L-223.057 116.06C-223.579 116.277 -224.134 116.047 -224.35 115.524C-224.566 115.001 -224.337 114.447 -223.814 114.231L-32.4391 31.5275C16.2404 10.4675 69.5088 9.93057 117.728 29.9253C165.946 49.9201 203.165 88.0874 222.695 137.323L299.588 331.485C299.696 331.746 299.581 332.023 299.505 332.208Z" fill="#8DAEFF"/>
<path d="M283.448 325.766C283.333 326.043 283.164 326.19 282.902 326.298C282.38 326.514 281.825 326.284 281.609 325.762L210.317 145.506C191.165 97.1846 154.586 59.8238 107.384 40.2505C60.181 20.6771 7.89714 21.1893 -39.8294 41.7784L-217.237 118.473C-217.76 118.69 -218.314 118.46 -218.531 117.937C-218.747 117.414 -218.517 116.86 -217.994 116.644L-40.5863 39.9489C7.66288 19.1435 60.4852 18.6381 108.242 38.4413C155.999 58.2445 192.925 96.0739 212.331 144.826L283.531 325.043C283.639 325.304 283.524 325.581 283.448 325.766Z" fill="#8DAEFF"/>
<path d="M267.082 318.764C266.967 319.041 266.798 319.187 266.536 319.295C266.014 319.511 265.46 319.282 265.243 318.759L199.838 153.286C180.941 105.395 144.693 68.2795 97.9521 48.8976C51.1189 29.4774 -0.664723 30.0888 -47.9068 50.554L-211.44 121.202C-211.963 121.418 -212.517 121.189 -212.734 120.666C-212.95 120.143 -212.72 119.589 -212.197 119.373L-48.7562 48.6862C-0.991364 28.0047 51.4231 27.4384 98.7182 47.0501C146.013 66.6618 182.554 104.115 201.76 152.567L267.073 318.002C267.181 318.263 267.197 318.486 267.082 318.764Z" fill="#8DAEFF"/>
<path d="M250.308 311.7C250.193 311.977 250.024 312.124 249.763 312.232C249.24 312.448 248.686 312.218 248.47 311.695L188.951 161.004C170.178 113.598 134.408 76.8973 88.0363 57.6686C41.665 38.44 -9.58023 39.0581 -56.392 59.2687L-205.175 123.584C-205.698 123.8 -206.252 123.57 -206.468 123.048C-206.684 122.525 -206.455 121.971 -205.932 121.755L-57.2796 57.4933C-10.0375 37.0281 41.8385 36.455 88.6717 55.8752C135.505 75.2954 171.753 112.411 190.65 160.301L250.299 310.938C250.407 311.2 250.385 311.515 250.308 311.7Z" fill="#8DAEFF"/>
<path d="M234.713 305.449C234.598 305.727 234.429 305.873 234.168 305.981C233.645 306.197 233.091 305.968 232.874 305.445L178.902 168.529C160.291 121.515 124.776 85.2442 78.8663 66.2071C32.9568 47.17 -17.8423 47.7566 -64.2237 67.7126L-199.601 126.328C-200.124 126.544 -200.678 126.315 -200.894 125.792C-201.11 125.269 -200.881 124.715 -200.358 124.499L-64.8883 65.9214C-18.0765 45.7108 33.3534 45.1693 79.7247 64.3979C126.096 83.6266 161.959 120.366 180.824 167.81L234.704 304.688C234.812 304.949 234.828 305.172 234.713 305.449Z" fill="#8DAEFF"/>
<path d="M218.14 298.686C218.025 298.963 217.856 299.109 217.595 299.217C217.072 299.434 216.518 299.204 216.301 298.681L167.885 176.302C149.49 129.81 114.267 93.8779 68.9122 75.0706C23.4646 56.225 -26.796 56.8184 -72.6547 76.5581L-193.82 128.834C-194.342 129.05 -194.897 128.82 -195.113 128.298C-195.329 127.775 -195.099 127.221 -194.577 127.005L-73.5581 74.5597C-27.1384 54.5113 23.6223 54.017 69.6242 73.0925C115.626 92.1679 151.103 128.531 169.753 175.453L218.131 297.924C218.239 298.186 218.255 298.409 218.14 298.686Z" fill="#8DAEFF"/>
<path d="M201.72 291.552C201.605 291.829 201.436 291.976 201.175 292.084C200.652 292.3 200.098 292.07 199.881 291.547L157.298 183.82C139.119 137.851 104.32 102.202 59.3343 83.5483C14.3485 64.8942 -35.4659 65.4561 -80.8403 85.0719L-187.685 131.27C-188.207 131.486 -188.762 131.256 -188.978 130.733C-189.194 130.211 -188.964 129.656 -188.442 129.44L-81.5972 83.2424C-35.7002 63.4103 14.6528 62.8552 60.1927 81.7391C105.64 100.585 140.825 136.609 159.312 183.14L201.711 290.79C201.819 291.052 201.835 291.275 201.72 291.552Z" fill="#8DAEFF"/>
<path d="M185.532 285.164C185.417 285.442 185.248 285.588 184.987 285.696C184.464 285.912 183.91 285.683 183.693 285.16L146.672 191.43C128.564 145.815 94.1495 110.543 49.5333 92.0421C5.00945 73.5795 -44.2666 74.1481 -89.2489 93.6018L-181.081 133.358C-181.604 133.575 -182.158 133.345 -182.374 132.822C-182.591 132.3 -182.361 131.745 -181.838 131.529L-89.9135 91.8106C-44.5008 72.1024 5.31367 71.5405 50.3918 90.2329C95.4699 108.925 130.361 144.612 148.594 190.712L185.523 284.403C185.631 284.664 185.647 284.887 185.532 285.164Z" fill="#8DAEFF"/>
<path d="M168.959 278.4C168.844 278.677 168.675 278.824 168.414 278.932C167.891 279.148 167.337 278.918 167.121 278.396L135.839 199.28C117.947 154.187 83.826 119.253 39.764 100.982C-4.29799 82.7106 -53.1279 83.2477 -97.6799 102.447L-175.638 136.157C-176.161 136.373 -176.715 136.143 -176.931 135.62C-177.147 135.098 -176.918 134.543 -176.395 134.327L-98.4368 100.617C-53.3622 81.2019 -3.99377 80.6716 40.5301 99.1342C85.1463 117.635 119.56 152.907 137.669 198.523L168.95 277.639C169.058 277.9 169.074 278.123 168.959 278.4Z" fill="#8DAEFF"/>
<path d="M152.724 271.343C152.609 271.62 152.44 271.767 152.178 271.875C151.656 272.091 151.102 271.861 150.885 271.339L125.437 206.874C107.799 162.212 74.025 127.746 30.3325 109.629C-13.2676 91.549 -61.5591 92.093 -105.681 111.037L-169.057 138.561C-169.58 138.777 -170.134 138.547 -170.35 138.025C-170.566 137.502 -170.337 136.948 -169.814 136.731L-106.384 109.339C-61.7934 90.0472 -12.9634 89.5101 31.191 107.819C75.3453 126.129 109.466 161.063 127.32 206.248L152.715 270.582C152.823 270.843 152.8 271.159 152.724 271.343Z" fill="#8DAEFF"/>
<path d="M136.374 264.563C136.259 264.84 136.09 264.987 135.828 265.095C135.306 265.311 134.752 265.081 134.535 264.558L114.773 214.577C97.2592 170.399 63.9086 136.217 20.7704 118.329C-22.3679 100.441 -70.2132 100.954 -113.758 119.812L-163.406 141.12C-163.929 141.336 -164.483 141.107 -164.7 140.584C-164.916 140.061 -164.686 139.507 -164.163 139.291L-114.569 117.852C-70.5016 98.7771 -22.1177 98.2715 21.5748 116.389C65.2672 134.507 99.0955 169.103 116.733 213.766L136.457 263.84C136.473 264.063 136.489 264.286 136.374 264.563Z" fill="#8DAEFF"/>
<path d="M120.587 258.775C120.472 259.052 120.303 259.199 120.042 259.307C119.519 259.523 118.965 259.293 118.748 258.77L104.24 222.226C86.8884 178.44 53.8306 144.596 11.0619 126.861C-31.6145 109.165 -78.9214 109.684 -122.074 128.381L-157.663 143.718C-158.186 143.935 -158.74 143.705 -158.957 143.182C-159.173 142.659 -158.943 142.105 -158.42 141.889L-122.831 126.551C-79.248 107.6 -31.4027 107.088 11.828 125.014C55.151 142.979 88.594 177.199 106.162 221.507L120.67 258.052C120.686 258.275 120.664 258.59 120.587 258.775Z" fill="#8DAEFF"/>
<path d="M103.874 251.304C103.759 251.581 103.59 251.727 103.329 251.835C102.806 252.052 102.252 251.822 102.036 251.299L93.4838 229.891C76.3484 186.627 43.676 153.16 1.36905 135.617C-40.9378 118.073 -87.7062 118.599 -130.429 137.041L-151.529 146.154C-152.051 146.371 -152.606 146.141 -152.822 145.618C-153.038 145.095 -152.808 144.541 -152.286 144.325L-131.055 135.158C-87.8099 116.5 -40.503 115.98 2.2658 133.715C45.0346 151.45 78.1847 185.332 95.4439 229.079L103.865 250.542C103.973 250.803 103.951 251.119 103.874 251.304Z" fill="#8DAEFF"/>
<path d="M87.5241 244.523C87.4092 244.8 87.2402 244.947 86.9789 245.055C86.4562 245.271 85.9019 245.041 85.6856 244.519L82.8583 237.501C65.9392 194.76 33.5596 161.631 -8.28539 144.279C-50.1304 126.927 -96.322 127.367 -138.56 145.686L-145.693 148.79C-146.216 149.006 -146.77 148.777 -146.987 148.254C-147.203 147.731 -146.973 147.177 -146.45 146.961L-139.317 143.856C-96.5946 125.414 -49.6955 124.834 -7.38863 142.377C34.9183 159.921 67.6831 193.426 84.7802 236.782L87.6075 243.8C87.6233 244.023 87.639 244.246 87.5241 244.523Z" fill="#8DAEFF"/>
<path d="M71.4061 238.489C71.3295 238.674 71.1222 238.913 70.8608 239.021C70.3381 239.237 69.7839 239.007 69.5676 238.485C52.1551 199.545 21.2263 169.182 -17.6628 153.056C-56.5519 136.93 -99.8145 136.312 -139.635 151.41C-140.158 151.627 -140.712 151.397 -140.928 150.874C-141.145 150.351 -140.915 149.797 -140.392 149.581C-100.141 134.228 -56.34 134.853 -16.9891 151.171C22.3619 167.488 53.6759 198.227 71.2123 237.651C71.5052 237.989 71.521 238.212 71.4061 238.489Z" fill="#8DAEFF"/>
<path d="M52.8932 230.921C52.8166 231.106 52.6476 231.252 52.4786 231.399C52.0483 231.653 51.3634 231.477 51.1088 231.047C32.9705 199.601 5.89879 175.601 -27.4479 161.773C-60.7022 147.984 -96.8678 145.653 -131.936 155.036C-132.421 155.16 -133.067 154.892 -133.153 154.315C-133.277 153.831 -133.009 153.184 -132.432 153.098C-96.9714 143.553 -60.398 145.945 -26.6818 159.926C7.03436 173.907 34.5296 198.191 52.8301 230.029C52.9383 230.29 53.0081 230.644 52.8932 230.921Z" fill="#8DAEFF"/>
<path d="M31.0773 221.658C31.0007 221.843 30.9624 221.935 30.7934 222.082C30.3248 222.429 29.7323 222.291 29.347 221.915C-5.4858 175.643 -62.7188 151.802 -120.09 159.623C-120.667 159.709 -121.145 159.294 -121.23 158.718C-121.316 158.141 -120.901 157.663 -120.324 157.578C-62.2456 149.617 -4.27362 173.764 30.9602 220.635C31.2531 220.973 31.2306 221.289 31.0773 221.658Z" fill="#8DAEFF"/>
<path d="M1.13946 208.487C1.10116 208.579 1.06284 208.671 0.932168 208.725C0.555904 209.111 -0.113238 209.158 -0.498495 208.782C-27.8338 183.59 -63.3592 168.75 -100.593 167.168C-101.131 167.161 -101.57 166.654 -101.564 166.115C-101.557 165.577 -101.05 165.138 -100.512 165.144C-62.8702 166.788 -26.883 181.819 0.837573 207.387C1.16876 207.633 1.29268 208.117 1.13946 208.487Z" fill="#8DAEFF"/>
</g>
</g>
</g>
</g>
</g>
<path d="M430.555 160.199L452.638 157.348L448.601 136.374L426.517 139.226L430.555 160.199ZM429.769 141.481L446.354 139.34L449.387 155.092L432.801 157.234L429.769 141.481Z" fill="black"/>
<path d="M443.546 143.048L433.833 144.302L435.609 153.527L445.322 152.273L443.546 143.048Z" fill="black"/>
<path d="M437.698 201.334L459.782 198.483L455.744 177.509L433.66 180.36L437.698 201.334ZM436.912 182.616L453.497 180.475L456.53 196.227L439.944 198.368L436.912 182.616Z" fill="black"/>
<path d="M450.689 184.183L440.976 185.437L442.752 194.662L452.465 193.407L450.689 184.183Z" fill="black"/>
<path d="M493.7 129.86L471.617 132.711L475.655 153.685L497.738 150.834L493.7 129.86ZM494.486 148.578L477.901 150.719L474.868 134.967L491.454 132.826L494.486 148.578Z" fill="black"/>
<path d="M488.646 136.532L478.932 137.786L480.708 147.011L490.422 145.757L488.646 136.532Z" fill="black"/>
<path d="M456.463 141.321L453.308 141.729L453.885 144.725L457.04 144.317L456.463 141.321Z" fill="black"/>
<path d="M462.906 140.391L459.751 140.798L460.328 143.794L463.483 143.387L462.906 140.391Z" fill="black"/>
<path d="M461.886 134.514L458.731 134.921L459.308 137.917L462.463 137.51L461.886 134.514Z" fill="black"/>
<path d="M468.848 136.552L468.28 133.583L465.174 133.986L465.742 136.955L466.31 139.924L469.416 139.52L468.848 136.552Z" fill="black"/>
<path d="M471.389 151.213L468.235 151.62L468.812 154.616L471.966 154.209L471.389 151.213Z" fill="black"/>
<path d="M488.54 172.857L491.646 172.453L491.078 169.484L490.509 166.515L487.404 166.919L487.972 169.888L488.54 172.857Z" fill="black"/>
<path d="M502.79 179.913L502.228 176.954L501.667 173.995L501.105 171.036L500.544 168.077L497.476 168.479L496.915 165.52L493.847 165.923L494.408 168.882L494.97 171.841L495.531 174.8L496.092 177.759L496.654 180.718L497.215 183.677L500.283 183.275L499.722 180.316L502.79 179.913Z" fill="black"/>
<path d="M496.841 183.678L493.687 184.085L494.263 187.081L497.418 186.674L496.841 183.678Z" fill="black"/>
<path d="M503.284 182.747L500.129 183.154L500.706 186.151L503.861 185.743L503.284 182.747Z" fill="black"/>
<path d="M497.995 189.496L498.572 192.493L501.727 192.085L504.881 191.678L504.304 188.682L501.15 189.089L500.573 186.093L497.418 186.5L497.995 189.496Z" fill="black"/>
<path d="M485.945 179.334L489.106 178.926L488.528 175.923L487.95 172.921L484.789 173.329L485.367 176.332L482.205 176.74L479.044 177.148L479.622 180.15L480.2 183.153L483.361 182.745L483.939 185.747L480.778 186.155L480.2 183.153L477.039 183.561L477.617 186.564L478.195 189.566L475.034 189.974L474.456 186.972L473.878 183.969L470.717 184.377L471.295 187.38L471.873 190.383L468.712 190.791L469.29 193.793L466.129 194.201L465.551 191.199L468.712 190.791L468.134 187.788L467.556 184.786L466.978 181.783L463.816 182.191L463.238 179.189L462.66 176.186L465.822 175.778L468.983 175.37L468.405 172.367L465.244 172.775L462.082 173.184L458.921 173.592L459.499 176.594L460.077 179.597L460.655 182.599L461.233 185.602L464.394 185.194L464.972 188.196L461.811 188.604L462.389 191.607L462.967 194.61L463.545 197.612L466.707 197.204L469.868 196.796L473.029 196.388L476.19 195.979L475.612 192.977L478.773 192.569L479.351 195.571L482.512 195.163L485.673 194.755L485.095 191.752L481.934 192.161L481.356 189.158L484.517 188.75L487.679 188.342L490.84 187.934L490.262 184.931L489.684 181.928L486.523 182.337L485.945 179.334Z" fill="black"/>
<path d="M492.599 178.267L489.445 178.674L490.021 181.67L493.176 181.263L492.599 178.267Z" fill="black"/>
<path d="M491.739 154.297L488.584 154.704L489.161 157.7L492.316 157.293L491.739 154.297Z" fill="black"/>
<path d="M493.409 163.214L496.594 162.801L499.779 162.387L499.197 159.345L498.614 156.304L495.429 156.717L492.244 157.131L492.826 160.172L489.641 160.586L489.058 157.544L485.873 157.958L486.456 161L487.038 164.041L490.224 163.628L493.409 163.214Z" fill="black"/>
<path d="M462.458 155.525L463.03 158.503L463.602 161.482L466.731 161.077L466.158 158.098L465.586 155.12L465.014 152.141L468.143 151.736L467.571 148.758L470.699 148.353L470.127 145.374L469.555 142.396L466.426 142.801L466.999 145.779L463.87 146.184L464.442 149.163L461.314 149.568L460.741 146.589L457.613 146.994L458.185 149.973L458.757 152.951L461.886 152.546L462.458 155.525Z" fill="black"/>
<path d="M448.813 172.506L449.39 175.502L452.545 175.095L455.7 174.688L455.123 171.691L451.968 172.099L451.391 169.102L448.237 169.51L448.813 172.506Z" fill="black"/>
<path d="M454.103 165.757L450.948 166.164L451.525 169.16L454.679 168.753L454.103 165.757Z" fill="black"/>
<path d="M444.372 167.211L443.795 164.215L440.64 164.622L440.063 161.626L436.908 162.033L433.754 162.44L430.599 162.848L431.176 165.844L431.753 168.84L432.329 171.836L432.906 174.833L433.483 177.829L436.638 177.422L436.061 174.425L439.216 174.018L442.371 173.611L441.794 170.615L438.639 171.022L438.062 168.026L441.217 167.618L441.794 170.615L444.949 170.207L448.103 169.8L447.526 166.804L444.372 167.211Z" fill="black"/>
<path d="M445.458 173.029L442.303 173.437L442.88 176.433L446.035 176.025L445.458 173.029Z" fill="black"/>
<path d="M471.373 169.562L474.551 169.151L475.132 172.177L478.31 171.766L478.891 174.791L482.069 174.38L485.247 173.969L484.666 170.943L484.084 167.917L487.262 167.505L486.681 164.48L483.503 164.891L482.922 161.865L482.341 158.839L479.163 159.251L479.744 162.276L476.567 162.688L475.985 159.662L479.163 159.251L478.582 156.225L475.404 156.636L472.227 157.047L469.049 157.459L469.63 160.485L472.808 160.073L473.389 163.099L473.97 166.125L470.792 166.537L470.211 163.511L469.63 160.485L466.452 160.896L467.033 163.922L463.855 164.333L460.678 164.745L460.096 161.719L459.515 158.693L458.934 155.667L458.353 152.641L455.175 153.053L455.756 156.079L456.338 159.104L453.16 159.516L449.982 159.927L446.804 160.339L443.626 160.75L444.207 163.776L447.385 163.365L447.966 166.39L451.144 165.979L450.563 162.953L453.741 162.542L456.919 162.13L457.5 165.156L458.081 168.182L458.662 171.208L461.84 170.797L465.018 170.385L468.195 169.974L468.777 173L471.954 172.588L471.373 169.562ZM480.325 165.302L480.907 168.328L477.729 168.74L477.148 165.714L480.325 165.302Z" fill="black"/>
<path d="M475.472 174.718L472.317 175.125L472.894 178.121L476.048 177.714L475.472 174.718Z" fill="black"/>
<path d="M476.492 180.594L473.337 181.001L473.914 183.997L477.068 183.59L476.492 180.594Z" fill="black"/>
<path d="M469.54 178.587L466.385 178.994L466.962 181.99L470.116 181.583L469.54 178.587Z" fill="black"/>
<path d="M189.428 99H185.078V79.57H195.228C199.723 79.57 202.623 82.122 202.623 86.588C202.623 91.054 199.723 93.635 195.228 93.635H189.428V99ZM194.764 83.485H189.428V89.72H194.764C197.171 89.72 198.302 89.024 198.302 86.588C198.302 84.21 197.171 83.485 194.764 83.485ZM207.733 99H202.861L211.358 79.57H217.564L226.119 99H221.131L219.304 94.708H209.589L207.733 99ZM213.098 86.559L211.271 90.793H217.622L215.795 86.559L214.606 83.543H214.287L213.098 86.559ZM238.647 99H234.268V92.562L225.655 79.57H231.02L234.732 85.254L236.356 87.864H236.675L238.299 85.254L242.011 79.57H247.405L238.647 92.591V99ZM252.583 99H248.233V79.57H254.12L258.673 89.14L260.5 93.693H260.819L262.588 89.14L266.996 79.57H272.912V99H268.562V89.14L268.707 86.095H268.388L267.257 89.14L263.197 97.84H257.919L253.859 89.14L252.728 86.095H252.409L252.583 89.14V99ZM291.637 99H275.194V79.57H291.637V83.485H279.544V87.284H291.202V91.17H279.544V95.085H291.637V99ZM297.952 99H293.602V79.57H298.242L305.202 88.763L307.87 92.852H308.189L307.986 88.937V79.57H312.336V99H307.696L300.533 89.72L298.068 86.066H297.778L297.952 89.633V99ZM325.461 99H321.111V83.485H313.89V79.57H332.682V83.485H325.461V99ZM189.23 135.29C183.285 135.29 179.631 131.346 179.631 125.285C179.631 119.224 183.749 115.28 190.419 115.28C196.509 115.28 200.366 118.122 200.366 122.791V123.023H195.523V122.791C195.523 120.529 194.044 119.456 190.303 119.456C185.895 119.456 184.242 120.964 184.242 125.285C184.242 129.606 185.837 131.114 190.1 131.114C194.566 131.114 195.929 130.418 196.045 127.953H189.462V124.734H200.395V135H196.364V130.824H196.132C195.465 133.376 193.435 135.29 189.23 135.29ZM206.091 135H201.219L209.716 115.57H215.922L224.477 135H219.489L217.662 130.708H207.947L206.091 135ZM211.456 122.559L209.629 126.793H215.98L214.153 122.559L212.964 119.543H212.645L211.456 122.559ZM236.309 135H231.959V119.485H224.738V115.57H243.53V119.485H236.309V135ZM261.532 135H245.089V115.57H261.532V119.485H249.439V123.284H261.097V127.17H249.439V131.085H261.532V135ZM273.705 135H267.238L262.656 115.57H267.528L269.877 126.59L270.544 130.853H270.863L271.762 126.59L275.01 115.57H281.477L284.696 126.59L285.595 130.853H285.914L286.581 126.59L288.93 115.57H293.686L289.075 135H282.608L279.708 125.285L278.345 119.688H278.026L276.663 125.285L273.705 135ZM298.755 135H293.883L302.38 115.57H308.586L317.141 135H312.153L310.326 130.708H300.611L298.755 135ZM304.12 122.559L302.293 126.793H308.644L306.817 122.559L305.628 119.543H305.309L304.12 122.559ZM329.669 135H325.29V128.562L316.677 115.57H322.042L325.754 121.254L327.378 123.864H327.697L329.321 121.254L333.033 115.57H338.427L329.669 128.591V135Z" fill="#0B0F1A"/>
</g>
<defs>
<linearGradient id="paint0_linear_958_172797" x1="326.813" y1="44.5337" x2="593.051" y2="178.219" gradientUnits="userSpaceOnUse">
<stop offset="0.4115" stop-color="#D91AFF"/>
<stop offset="1" stop-color="#1AA4FF"/>
</linearGradient>
<linearGradient id="paint1_linear_958_172797" x1="617.342" y1="-174.073" x2="307.119" y2="443.747" gradientUnits="userSpaceOnUse">
<stop stop-color="#D919FF"/>
<stop offset="1" stop-color="#7919FF"/>
</linearGradient>
<linearGradient id="paint2_linear_958_172797" x1="617.342" y1="-174.073" x2="307.119" y2="443.747" gradientUnits="userSpaceOnUse">
<stop stop-color="#D919FF"/>
<stop offset="1" stop-color="#7919FF"/>
</linearGradient>
<linearGradient id="paint3_linear_958_172797" x1="158.045" y1="-46.3646" x2="43.9304" y2="228.83" gradientUnits="userSpaceOnUse">
<stop offset="0.4115" stop-color="#D91AFF"/>
<stop offset="1" stop-color="#1AA4FF"/>
</linearGradient>
<linearGradient id="paint4_linear_958_172797" x1="-204.72" y1="-21.9142" x2="433.886" y2="242.894" gradientUnits="userSpaceOnUse">
<stop stop-color="#D919FF"/>
<stop offset="1" stop-color="#7919FF"/>
</linearGradient>
<linearGradient id="paint5_linear_958_172797" x1="-204.72" y1="-21.9142" x2="433.886" y2="242.894" gradientUnits="userSpaceOnUse">
<stop stop-color="#D919FF"/>
<stop offset="1" stop-color="#7919FF"/>
</linearGradient>
<clipPath id="clip0_958_172797">
<rect x="6" y="6" width="504" height="204" rx="16" fill="white"/>
</clipPath>
<clipPath id="clip1_958_172797">
<rect width="271" height="688" fill="white" transform="matrix(-0.893666 -0.448733 -0.448733 0.893666 737.912 -111.394)"/>
</clipPath>
<clipPath id="clip2_958_172797">
<rect width="271" height="688" fill="white" transform="matrix(-0.893666 -0.448733 -0.448733 0.893666 737.912 -111.394)"/>
</clipPath>
<clipPath id="clip3_958_172797">
<rect width="271" height="688" fill="white" transform="matrix(-0.893666 -0.448733 -0.448733 0.893666 737.912 -111.394)"/>
</clipPath>
<clipPath id="clip4_958_172797">
<rect width="271" height="688" fill="white" transform="translate(-255 104.331) rotate(-67.4778)"/>
</clipPath>
<clipPath id="clip5_958_172797">
<rect width="271" height="688" fill="white" transform="translate(-255 104.331) rotate(-67.4778)"/>
</clipPath>
<clipPath id="clip6_958_172797">
<rect width="271" height="688" fill="white" transform="translate(-255 104.331) rotate(-67.4778)"/>
</clipPath>
</defs>
</svg>
