<svg width="504" height="204" viewBox="0 0 504 204" fill="none" xmlns="http://www.w3.org/2000/svg">
<g clip-path="url(#clip0_958_172641)">
<rect width="504" height="204" rx="16" fill="url(#paint0_linear_958_172641)"/>
<path d="M970.068 38.4812C918.992 -53.8946 846.777 -162.199 787.189 -146.884C724.252 -130.707 731.342 8.99691 661.851 45.1589C579.106 88.2187 515.644 -82.0714 385.865 -122.738C194.716 -182.636 120.833 120.494 -47.0936 72.319C-115.89 52.5826 -481.395 -401.986 -588.499 -680.394" stroke="#9D9EA7" stroke-width="1.3" stroke-miterlimit="10"/>
<path d="M967.17 47.7435C916.094 -44.6322 843.879 -152.937 784.291 -137.621C721.354 -121.445 728.443 18.2591 658.953 54.421C576.208 97.4809 512.746 -72.8092 382.967 -113.476C191.818 -173.374 117.935 129.757 -49.9917 81.5811C-118.788 61.8447 -476.316 -381.751 -583.42 -660.158" stroke="#9D9EA7" stroke-width="1.3" stroke-miterlimit="10"/>
<path d="M964.272 57.0057C913.197 -35.3699 840.981 -143.675 781.393 -128.359C718.456 -112.183 725.546 27.5214 656.056 63.6834C573.311 106.743 509.849 -63.5468 380.069 -104.214C188.92 -164.111 115.037 139.019 -52.8892 90.8435C-121.685 71.1071 -471.237 -361.515 -578.341 -639.923" stroke="#9D9EA7" stroke-width="1.3" stroke-miterlimit="10"/>
<path d="M961.375 66.2685C910.299 -26.1072 838.084 -134.412 778.495 -119.096C715.558 -102.92 722.648 36.7842 653.158 72.9462C570.413 116.006 506.951 -54.2841 377.172 -94.9511C186.023 -154.849 112.139 148.282 -55.7867 100.106C-124.583 80.3698 -466.158 -341.279 -573.261 -619.687" stroke="#9D9EA7" stroke-width="1.3" stroke-miterlimit="10"/>
<path d="M958.477 75.5308C907.401 -16.845 835.186 -125.15 775.597 -109.834C712.66 -93.6576 719.75 46.0465 650.26 82.2084C567.515 125.268 504.053 -45.0218 374.274 -85.6888C183.125 -145.586 109.241 157.544 -58.6848 109.369C-127.481 89.6321 -461.079 -321.044 -568.183 -599.452" stroke="#9D9EA7" stroke-width="1.3" stroke-miterlimit="10"/>
<path d="M955.579 84.7927C904.503 -7.58309 832.288 -115.888 772.7 -100.572C709.763 -84.3958 716.852 55.3084 647.362 91.4703C564.617 134.53 501.155 -35.7599 371.376 -76.4269C180.227 -136.324 106.344 166.806 -61.5826 118.63C-130.379 98.8939 -456 -300.809 -563.104 -579.217" stroke="#9D9EA7" stroke-width="1.3" stroke-miterlimit="10"/>
<path d="M952.681 94.0551C901.606 1.67931 829.39 -106.625 769.802 -91.3098C706.865 -75.1334 713.955 64.5707 644.465 100.733C561.72 143.792 498.257 -26.4976 368.478 -67.1647C177.329 -127.062 103.446 176.068 -64.4802 127.893C-133.276 108.156 -450.921 -280.574 -558.025 -558.982" stroke="#9D9EA7" stroke-width="1.3" stroke-miterlimit="10"/>
<path d="M949.783 103.318C898.707 10.9419 826.492 -97.3627 766.904 -82.0471C703.967 -65.8708 711.057 73.8334 641.566 109.995C558.821 153.055 495.359 -17.2349 365.58 -57.902C174.431 -117.8 100.548 185.331 -67.3785 137.155C-136.175 117.419 -445.842 -260.338 -552.946 -538.746" stroke="#9D9EA7" stroke-width="1.3" stroke-miterlimit="10"/>
<path d="M946.885 112.58C895.809 20.2042 823.594 -88.1003 764.006 -72.7849C701.069 -56.6084 708.158 83.0955 638.668 119.257C555.923 162.317 492.461 -7.9727 362.682 -48.6397C171.533 -108.537 97.6497 194.593 -70.2765 146.418C-139.073 126.681 -440.763 -240.103 -547.867 -518.51" stroke="#9D9EA7" stroke-width="1.3" stroke-miterlimit="10"/>
<path d="M943.987 121.842C892.912 29.4668 820.696 -78.8379 761.108 -63.5224C698.171 -47.3459 705.261 92.358 635.771 128.52C553.026 171.58 489.564 1.28984 359.784 -39.3773C168.635 -99.2749 94.752 203.855 -73.1743 155.68C-141.97 135.944 -435.684 -219.867 -542.788 -498.275" stroke="#9D9EA7" stroke-width="1.3" stroke-miterlimit="10"/>
<path d="M941.09 131.105C890.014 38.7289 817.799 -69.5757 758.211 -54.2602C695.274 -38.0837 702.364 101.62 632.874 137.782C550.128 180.842 486.666 10.5522 356.887 -30.1148C165.738 -90.0124 91.8547 213.118 -76.0715 164.942C-144.868 145.206 -430.604 -199.632 -537.708 -478.039" stroke="#9D9EA7" stroke-width="1.3" stroke-miterlimit="10"/>
<path d="M938.192 140.367C887.116 47.9911 814.901 -60.3135 755.313 -44.9978C692.376 -28.8215 699.465 110.883 629.975 147.045C547.23 190.104 483.768 19.8144 353.989 -20.8527C162.84 -80.7502 88.9566 222.38 -78.9695 174.205C-147.766 154.468 -425.525 -179.397 -532.629 -457.804" stroke="#9D9EA7" stroke-width="1.3" stroke-miterlimit="10"/>
<path d="M935.294 149.629C884.218 57.2535 812.003 -51.051 752.415 -35.7355C689.478 -19.5592 696.568 120.145 627.078 156.307C544.333 199.367 480.87 29.0766 351.091 -11.5904C159.942 -71.488 86.0589 231.642 -81.8673 183.467C-150.663 163.73 -420.446 -159.161 -527.55 -437.569" stroke="#9D9EA7" stroke-width="1.3" stroke-miterlimit="10"/>
<path d="M932.396 158.892C881.32 66.5158 809.105 -41.7888 749.517 -26.4731C686.58 -10.2968 693.67 129.407 624.179 165.569C541.434 208.629 477.972 38.339 348.193 -2.32805C157.044 -62.2256 83.1606 240.905 -84.7655 192.729C-153.562 172.993 -415.368 -138.926 -522.471 -417.334" stroke="#9D9EA7" stroke-width="1.3" stroke-miterlimit="10"/>
<path d="M929.499 168.154C878.423 75.7782 806.208 -32.5263 746.619 -17.2108C683.682 -1.03447 690.772 138.67 621.282 174.832C538.537 217.891 475.075 47.6013 345.296 6.93428C154.146 -52.9633 80.2633 250.167 -87.6629 201.992C-156.459 182.255 -410.288 -118.691 -517.392 -397.098" stroke="#9D9EA7" stroke-width="1.3" stroke-miterlimit="10"/>
<path d="M926.6 177.416C875.525 85.0404 803.309 -23.2641 743.721 -7.9486C680.784 8.22776 687.874 147.932 618.384 184.094C535.639 227.154 472.177 56.8636 342.397 16.1965C151.248 -43.701 77.365 259.429 -90.5611 211.254C-159.357 191.517 -405.209 -98.4553 -512.313 -376.863" stroke="#9D9EA7" stroke-width="1.3" stroke-miterlimit="10"/>
<path d="M923.703 186.678C872.627 94.3027 800.412 -14.0019 740.824 1.31363C677.887 17.4901 684.976 157.194 615.486 193.356C532.741 236.416 469.279 66.1259 339.5 25.4588C148.351 -34.4387 74.4675 268.692 -93.4586 220.516C-162.255 200.78 -400.13 -78.2199 -507.234 -356.628" stroke="#9D9EA7" stroke-width="1.3" stroke-miterlimit="10"/>
<path d="M920.805 195.941C869.729 103.565 797.514 -4.73969 737.926 10.5759C674.989 26.7523 682.079 166.456 612.589 202.618C529.843 245.678 466.382 75.3881 336.602 34.7211C145.453 -25.1765 71.5699 277.954 -96.3562 229.778C-165.152 210.042 -395.051 -57.9846 -502.154 -336.392" stroke="#9D9EA7" stroke-width="1.3" stroke-miterlimit="10"/>
<path d="M917.907 205.203C866.832 112.827 794.616 4.52273 735.028 19.8384C672.091 36.0147 679.181 175.719 609.691 211.881C526.946 254.941 463.483 84.6504 333.704 43.9834C142.555 -15.9141 68.672 287.216 -99.2542 239.041C-168.05 219.304 -389.972 -37.7492 -497.076 -316.157" stroke="#9D9EA7" stroke-width="1.3" stroke-miterlimit="10"/>
<path d="M915.01 214.466C863.934 122.09 791.719 13.785 732.131 29.1006C669.193 45.277 676.283 184.981 606.793 221.143C524.048 264.203 460.586 93.9128 330.807 53.2457C139.657 -6.65193 65.7744 296.478 -102.152 248.303C-170.948 228.567 -384.892 -17.5138 -491.996 -295.921" stroke="#9D9EA7" stroke-width="1.3" stroke-miterlimit="10"/>
<path d="M912.112 223.728C861.036 131.352 788.821 23.0473 729.233 38.3629C666.296 54.5393 673.386 194.243 603.896 230.405C521.151 273.465 457.688 103.175 327.909 62.508C136.76 2.61049 62.8769 305.741 -105.049 257.565C-173.845 237.829 -379.813 2.72148 -486.917 -275.686" stroke="#9D9EA7" stroke-width="1.3" stroke-miterlimit="10"/>
<path d="M909.214 232.99C858.139 140.614 785.923 32.3098 726.335 47.6253C663.398 63.8017 670.488 203.506 600.998 239.668C518.253 282.728 454.791 112.437 325.011 71.7704C133.862 11.8729 59.979 315.003 -107.947 266.828C-176.743 247.091 -374.734 22.9568 -481.838 -255.451" stroke="#9D9EA7" stroke-width="1.3" stroke-miterlimit="10"/>
<path d="M906.316 242.252C855.24 149.877 783.025 41.572 723.437 56.8875C660.5 73.0638 667.59 212.768 598.1 248.93C515.354 291.99 451.892 121.7 322.113 81.0326C130.964 21.1351 57.0807 324.265 -110.845 276.09C-179.641 256.354 -369.655 43.1922 -476.759 -235.215" stroke="#9D9EA7" stroke-width="1.3" stroke-miterlimit="10"/>
<path d="M903.418 251.515C852.342 159.139 780.127 50.8343 720.538 66.1499C657.601 82.3263 664.691 222.03 595.201 258.192C512.456 301.252 448.994 130.962 319.215 90.295C128.065 30.3974 54.1822 333.528 -113.744 285.352C-182.54 265.616 -364.577 63.4276 -471.681 -214.98" stroke="#9D9EA7" stroke-width="1.3" stroke-miterlimit="10"/>
<path d="M900.52 260.777C849.444 168.401 777.229 60.0966 717.641 75.4122C654.704 91.5886 661.794 231.293 592.304 267.455C509.558 310.514 446.096 140.224 316.317 99.5573C125.168 39.6598 51.2849 342.79 -116.641 294.615C-185.437 274.878 -359.498 83.663 -466.601 -194.745" stroke="#9D9EA7" stroke-width="1.3" stroke-miterlimit="10"/>
<path d="M897.622 270.039C846.547 177.663 774.331 69.3587 714.743 84.6744C651.806 100.851 658.896 240.555 589.406 276.717C506.661 319.777 443.199 149.487 313.419 108.82C122.27 48.922 48.3871 352.052 -119.539 303.877C-188.335 284.141 -354.418 103.898 -461.522 -174.509" stroke="#9D9EA7" stroke-width="1.3" stroke-miterlimit="10"/>
<path d="M894.724 279.302C843.649 186.926 771.433 78.6216 711.845 93.9372C648.908 110.114 655.998 249.818 586.508 285.98C503.763 329.039 440.301 158.749 310.521 118.082C119.372 58.1847 45.4891 361.315 -122.437 313.14C-191.233 293.403 -349.339 124.134 -456.443 -154.274" stroke="#9D9EA7" stroke-width="1.3" stroke-miterlimit="10"/>
<path d="M891.827 288.564C840.751 196.188 768.536 87.8834 708.948 103.199C646.011 119.375 653.101 259.079 583.61 295.241C500.865 338.301 437.403 168.011 307.624 127.344C116.475 67.4466 42.5917 370.577 -125.335 322.402C-194.131 302.665 -344.26 144.369 -451.364 -134.039" stroke="#9D9EA7" stroke-width="1.3" stroke-miterlimit="10"/>
<path d="M888.929 297.827C837.853 205.451 765.638 97.1464 706.05 112.462C643.113 128.638 650.203 268.342 580.712 304.504C497.967 347.564 434.505 177.274 304.726 136.607C113.577 76.7095 39.6936 379.84 -128.233 331.664C-197.029 311.928 -339.181 164.605 -446.285 -113.803" stroke="#9D9EA7" stroke-width="1.3" stroke-miterlimit="10"/>
<path d="M886.032 307.089C834.956 214.713 762.741 106.409 703.152 121.724C640.215 137.901 647.305 277.605 577.815 313.767C495.07 356.826 431.608 186.536 301.828 145.869C110.679 85.9717 36.7961 389.102 -131.13 340.927C-199.926 321.19 -334.102 184.84 -441.206 -93.5676" stroke="#9D9EA7" stroke-width="1.3" stroke-miterlimit="10"/>
<path d="M883.134 316.351C832.058 223.975 759.843 115.671 700.255 130.986C637.318 147.163 644.408 286.866 574.917 323.028C492.172 366.088 428.71 195.798 298.931 155.131C107.782 95.2335 33.8988 398.364 -134.027 350.188C-202.824 330.452 -329.022 205.075 -436.126 -73.3327" stroke="#9D9EA7" stroke-width="1.3" stroke-miterlimit="10"/>
<path d="M880.235 325.614C829.16 233.238 756.944 124.933 697.356 140.249C634.419 156.425 641.509 296.129 572.019 332.291C489.274 375.351 425.812 205.061 296.032 164.394C104.883 104.496 31.0001 407.627 -136.926 359.451C-205.722 339.715 -323.944 225.311 -431.048 -53.0968" stroke="#9D9EA7" stroke-width="1.3" stroke-miterlimit="10"/>
<path d="M877.338 334.876C826.262 242.5 754.047 134.195 694.459 149.511C631.521 165.687 638.611 305.391 569.121 341.553C486.376 384.613 422.914 214.323 293.135 173.656C101.986 113.759 28.1024 416.889 -139.824 368.714C-208.62 348.977 -318.865 245.546 -425.968 -32.8615" stroke="#9D9EA7" stroke-width="1.3" stroke-miterlimit="10"/>
<path d="M874.44 344.138C823.364 251.762 751.149 143.458 691.561 158.773C628.623 174.95 635.713 314.654 566.223 350.816C483.478 393.876 420.016 223.586 290.237 182.918C99.0877 123.021 25.2047 426.151 -142.722 377.976C-211.518 358.239 -313.786 265.782 -420.89 -12.6262" stroke="#9D9EA7" stroke-width="1.3" stroke-miterlimit="10"/>
<path d="M871.542 353.4C820.467 261.025 748.251 152.72 688.663 168.036C625.726 184.212 632.816 323.916 563.326 360.078C480.581 403.138 417.118 232.848 287.339 192.181C96.1901 132.283 22.3069 435.413 -145.619 387.238C-214.415 367.502 -308.706 286.017 -415.81 7.60928" stroke="#9D9EA7" stroke-width="1.3" stroke-miterlimit="10"/>
<path d="M187.709 87H181.959V82H198.959V87H193.209V117H187.709V87ZM209.877 117.5C207.177 117.5 205.11 116.733 203.677 115.2C202.244 113.667 201.527 111.5 201.527 108.7V90.3C201.527 87.5 202.244 85.3333 203.677 83.8C205.11 82.2667 207.177 81.5 209.877 81.5C212.577 81.5 214.644 82.2667 216.077 83.8C217.51 85.3333 218.227 87.5 218.227 90.3V108.7C218.227 111.5 217.51 113.667 216.077 115.2C214.644 116.733 212.577 117.5 209.877 117.5ZM209.877 112.5C211.777 112.5 212.727 111.35 212.727 109.05V89.95C212.727 87.65 211.777 86.5 209.877 86.5C207.977 86.5 207.027 87.65 207.027 89.95V109.05C207.027 111.35 207.977 112.5 209.877 112.5ZM222.446 82H227.946V96.75L234.946 82H240.446L233.896 94.85L240.546 117H234.796L230.146 101.4L227.946 105.85V117H222.446V82ZM243.65 82H258.65V87H249.15V96.25H256.7V101.25H249.15V112H258.65V117H243.65V82ZM262.314 82H269.214L274.564 102.95H274.664V82H279.564V117H273.914L267.314 91.45H267.214V117H262.314V82ZM291.902 117.5C289.235 117.5 287.202 116.75 285.802 115.25C284.402 113.717 283.702 111.533 283.702 108.7V108.05H288.902V109.05C288.902 111.35 289.852 112.5 291.752 112.5C292.785 112.5 293.552 112.183 294.052 111.55C294.552 110.917 294.802 109.8 294.802 108.2V101.5H294.702C293.735 103.533 292.068 104.55 289.702 104.55C287.702 104.55 286.185 103.867 285.152 102.5C284.118 101.133 283.602 99.15 283.602 96.55V90.3C283.602 87.5 284.318 85.3333 285.752 83.8C287.185 82.2667 289.252 81.5 291.952 81.5C294.652 81.5 296.718 82.2667 298.152 83.8C299.585 85.3333 300.302 87.5 300.302 90.3V108.4C300.302 114.467 297.502 117.5 291.902 117.5ZM291.952 99.55C293.852 99.55 294.802 98.4 294.802 96.1V89.9C294.802 87.6333 293.852 86.5 291.952 86.5C290.052 86.5 289.102 87.6333 289.102 89.9V96.1C289.102 98.4 290.052 99.55 291.952 99.55ZM312.421 117.5C309.754 117.5 307.721 116.75 306.321 115.25C304.921 113.717 304.221 111.533 304.221 108.7V108.05H309.421V109.05C309.421 111.35 310.371 112.5 312.271 112.5C313.304 112.5 314.071 112.183 314.571 111.55C315.071 110.917 315.321 109.8 315.321 108.2V101.5H315.221C314.254 103.533 312.588 104.55 310.221 104.55C308.221 104.55 306.704 103.867 305.671 102.5C304.638 101.133 304.121 99.15 304.121 96.55V90.3C304.121 87.5 304.838 85.3333 306.271 83.8C307.704 82.2667 309.771 81.5 312.471 81.5C315.171 81.5 317.238 82.2667 318.671 83.8C320.104 85.3333 320.821 87.5 320.821 90.3V108.4C320.821 114.467 318.021 117.5 312.421 117.5ZM312.471 99.55C314.371 99.55 315.321 98.4 315.321 96.1V89.9C315.321 87.6333 314.371 86.5 312.471 86.5C310.571 86.5 309.621 87.6333 309.621 89.9V96.1C309.621 98.4 310.571 99.55 312.471 99.55Z" fill="white"/>
</g>
<defs>
<linearGradient id="paint0_linear_958_172641" x1="252" y1="0" x2="252" y2="204" gradientUnits="userSpaceOnUse">
<stop stop-color="#8DAEFF"/>
<stop offset="1" stop-color="#1A5BFF"/>
</linearGradient>
<clipPath id="clip0_958_172641">
<rect width="504" height="204" rx="16" fill="white"/>
</clipPath>
</defs>
</svg>
