<svg width="76" height="76" viewBox="0 0 76 76" fill="none" xmlns="http://www.w3.org/2000/svg">
<path d="M38 76C32.8705 76 27.8939 74.9936 23.2083 73.0088C18.6832 71.092 14.6194 68.3481 11.13 64.8533C7.64042 61.3586 4.90066 57.2888 2.98668 52.7569C1.00488 48.0643 0 43.0802 0 37.943C0 28.3018 3.6065 19.1046 10.1551 12.0457C16.6688 5.02445 25.4916 0.747731 34.9984 0.00339694C35.3476 -0.0237928 35.6896 0.113357 35.9234 0.374711C36.1572 0.636064 36.2559 0.991649 36.1904 1.33632C36.1315 1.6464 36.1017 1.95998 36.1017 2.2684C36.1017 5.00016 38.3208 7.22258 41.0484 7.22258C41.8716 7.22258 42.655 7.02652 43.3769 6.63981C43.7185 6.45678 44.1302 6.46288 44.4665 6.65591C44.8026 6.84898 45.0158 7.20178 45.0306 7.58958C45.1856 11.6448 48.3519 14.8833 52.3955 15.1225C52.7465 15.1433 53.0676 15.3274 53.2633 15.6199C53.459 15.9125 53.5068 16.2798 53.3923 16.6128C53.1104 17.4335 52.9675 18.2935 52.9675 19.169C52.9675 23.4997 56.4855 27.0229 60.8096 27.0229C62.3498 27.0229 63.8406 26.5758 65.121 25.7299C65.4351 25.5224 65.8319 25.486 66.1785 25.633C66.525 25.7799 66.7751 26.0907 66.8449 26.461C67.3063 28.9095 69.4496 30.6866 71.9411 30.6866C72.6062 30.6866 73.2559 30.561 73.8721 30.3133C74.1858 30.1871 74.5396 30.2091 74.8354 30.3729C75.1312 30.5369 75.3376 30.8255 75.3975 31.1586C75.7973 33.3833 76 35.6659 76 37.9429C76 43.0801 74.9951 48.0642 73.0133 52.7568C71.0993 57.2887 68.3596 61.3586 64.87 64.8533C61.3806 68.348 57.3168 71.0919 52.7917 73.0088C48.106 74.9936 43.1294 76 38 76ZM33.854 2.37671C16.0257 4.44607 2.24852 19.8172 2.24852 37.943C2.24852 57.686 18.2865 73.7481 38 73.7481C57.7134 73.7481 73.7514 57.686 73.7514 37.943C73.7514 36.2205 73.6283 34.4952 73.3847 32.7976C72.9115 32.8914 72.4291 32.9386 71.941 32.9386C68.8848 32.9386 66.1939 31.0722 65.0665 28.3335C63.7405 28.9524 62.2927 29.2749 60.8096 29.2749C55.2456 29.2749 50.719 24.7414 50.719 19.1691C50.719 18.5035 50.7833 17.8445 50.9111 17.1984C48.9263 16.8076 47.0979 15.825 45.6617 14.3582C44.2664 12.9332 43.3349 11.1462 42.961 9.21511C42.3399 9.38626 41.6954 9.47451 41.0484 9.47451C37.117 9.47451 33.9119 6.30045 33.854 2.37671Z" fill="#414042"/>
<path d="M22.7609 17.7985C23.1451 16.1692 22.1376 14.5365 20.5107 14.1517C18.8838 13.767 17.2536 14.7759 16.8694 16.4053C16.4852 18.0346 17.4927 19.6674 19.1196 20.0521C20.7465 20.4368 22.3768 19.4279 22.7609 17.7985Z" fill="#414042"/>
<path d="M23.0523 57.2034C25.6094 54.6425 25.6094 50.4903 23.0523 47.9294C20.4952 45.3684 16.3493 45.3684 13.7922 47.9294C11.2351 50.4903 11.2351 54.6425 13.7922 57.2034C16.3493 59.7644 20.4952 59.7644 23.0523 57.2034Z" fill="#414042"/>
<path d="M41.1961 68.4231C43.2914 68.4231 44.9899 66.7221 44.9899 64.6237C44.9899 62.5253 43.2914 60.8242 41.1961 60.8242C39.1009 60.8242 37.4023 62.5253 37.4023 64.6237C37.4023 66.7221 39.1009 68.4231 41.1961 68.4231Z" fill="#414042"/>
<path d="M38.0032 27.5525C40.1626 25.3899 40.1626 21.8836 38.0032 19.7209C35.8438 17.5583 32.3427 17.5583 30.1834 19.7209C28.024 21.8836 28.024 25.3899 30.1834 27.5525C32.3427 29.7151 35.8438 29.7151 38.0032 27.5525Z" fill="#414042"/>
<path d="M61.632 55.2828C64.722 55.2828 67.227 52.7741 67.227 49.6795C67.227 46.5849 64.722 44.0762 61.632 44.0762C58.542 44.0762 56.0371 46.5849 56.0371 49.6795C56.0371 52.7741 58.542 55.2828 61.632 55.2828Z" fill="#414042"/>
<path d="M49.1421 41.3725C51.0026 41.3725 52.5109 39.862 52.5109 37.9988C52.5109 36.1355 51.0026 34.625 49.1421 34.625C47.2817 34.625 45.7734 36.1355 45.7734 37.9988C45.7734 39.862 47.2817 41.3725 49.1421 41.3725Z" fill="#414042"/>
<path d="M33.3781 47.8514C35.4616 47.8514 37.1506 46.1598 37.1506 44.0732C37.1506 41.9865 35.4616 40.2949 33.3781 40.2949C31.2945 40.2949 29.6055 41.9865 29.6055 44.0732C29.6055 46.1598 31.2945 47.8514 33.3781 47.8514Z" fill="#414042"/>
<path d="M14.9924 34.2074C16.4131 34.2074 17.5649 33.0539 17.5649 31.631C17.5649 30.2082 16.4131 29.0547 14.9924 29.0547C13.5717 29.0547 12.4199 30.2082 12.4199 31.631C12.4199 33.0539 13.5717 34.2074 14.9924 34.2074Z" fill="#414042"/>
</svg>
